HIERARCHY
ROOT Hips
{
	OFFSET 0.00000 0.00000 0.00000
	CHANNELS 6 Xposition Yposition Zposition Zrotation Yrotation Xrotation 
	JOINT LHipJoint
	{
		OFFSET 0 0 0
		CHANNELS 3 Zrotation Yrotation Xrotation
		JOINT LeftHip
		{
			OFFSET 1.75344 -1.53157 0.77399
			CHANNELS 3 Zrotation Yrotation Xrotation
			JOINT LeftKnee
			{
				OFFSET 2.25415 -6.19323 0.00000
				CHANNELS 3 Zrotation Yrotation Xrotation
				JOINT LeftAnkle
				{
					OFFSET 2.30342 -6.32861 0.00000
					CHANNELS 3 Zrotation Yrotation Xrotation
					JOINT LeftToe
					{
						OFFSET 0.10958 -0.30108 1.49206
						CHANNELS 3 Zrotation Yrotation Xrotation
						End Site
						{
							OFFSET 0.00000 -0.00000 0.77783
						}
					}
				}
			}
		}
	}
	JOINT RHipJoint
	{
		OFFSET 0 0 0
		CHANNELS 3 Zrotation Yrotation Xrotation
		JOINT RightHip
		{
			OFFSET -1.81912 -1.53156 0.77399
			CHANNELS 3 Zrotation Yrotation Xrotation
			JOINT RightKnee
			{
				OFFSET -2.22882 -6.12365 0.00000
				CHANNELS 3 Zrotation Yrotation Xrotation
				JOINT RightAnkle
				{
					OFFSET -2.21943 -6.09785 0.00000
					CHANNELS 3 Zrotation Yrotation Xrotation
					JOINT RightToe
					{
						OFFSET -0.18931 -0.52012 1.59379
						CHANNELS 3 Zrotation Yrotation Xrotation
						End Site
						{
							OFFSET -0.00000 -0.00000 0.84686
						}
					}
				}
			}
		}
	}
	JOINT lowerback
	{
		OFFSET 0 0 0
		CHANNELS 3 Zrotation Yrotation Xrotation
		JOINT Chest
		{
			OFFSET -0.00200 1.66634 -0.14248
			CHANNELS 3 Zrotation Yrotation Xrotation
			JOINT Chest2
			{
				OFFSET -0.00875 1.64542 0.09514
				CHANNELS 3 Zrotation Yrotation Xrotation
				JOINT lowerneck
				{
					OFFSET 0 0 0
					CHANNELS 3 Zrotation Yrotation Xrotation
					JOINT Neck
					{
						OFFSET 0.02257 1.59605 0.00839
						CHANNELS 3 Zrotation Yrotation Xrotation
						JOINT Head
						{
							OFFSET -0.10214 1.57530 -0.23335
							CHANNELS 3 Zrotation Yrotation Xrotation
							End Site
							{
								OFFSET -0.03588 1.60717 -0.08062
							}
						}
					}
				}
				JOINT LeftCollar
				{
					OFFSET 0 0 0
					CHANNELS 3 Zrotation Yrotation Xrotation
					JOINT LeftShoulder
					{
						OFFSET 2.54983 1.10186 0.40078
CHANNELS 3 Zrotation Xrotation Yrotation
						JOINT LeftElbow
						{
OFFSET 0 -4.288400 0.000000
CHANNELS 3 Zrotation Xrotation Yrotation
							JOINT LeftWrist
							{
OFFSET 0 -3.065520 -0.000000
CHANNELS 3 Zrotation Xrotation Yrotation
								JOINT lhand
								{
									OFFSET 0 0 0
CHANNELS 3 Zrotation Xrotation Yrotation
									JOINT LFingers
									{
OFFSET 0 -0.753040 0.000000
CHANNELS 3 Zrotation Xrotation Yrotation
										End Site
										{
OFFSET 0 -0.607120 0.000000
										}
									}
								}
								JOINT LThumb
								{
OFFSET 0 0.000000 0.000000
CHANNELS 3 Zrotation Xrotation Yrotation
									End Site
									{
OFFSET 0 -0.616390 0.616390
									}
								}
							}
						}
					}
				}
				JOINT RightCollar
				{
					OFFSET 0 0 0
					CHANNELS 3 Zrotation Yrotation Xrotation
					JOINT RightShoulder
					{
						OFFSET -2.60909 1.35448 0.21802
CHANNELS 3 Zrotation Xrotation Yrotation
						JOINT RightElbow
						{
OFFSET 0 -4.521720 -0.000000
CHANNELS 3 Zrotation Xrotation Yrotation
							JOINT RightWrist
							{
OFFSET 0 -2.891400 0.000000
CHANNELS 3 Zrotation Xrotation Yrotation
								JOINT rhand
								{
									OFFSET 0 0 0
CHANNELS 3 Zrotation Xrotation Yrotation
									JOINT RFingers
									{
OFFSET 0 -0.680540 0.000000
CHANNELS 3 Zrotation Xrotation Yrotation
										End Site
										{
OFFSET 0 -0.548670 0.000000
										}
									}
								}
								JOINT RThumb
								{
OFFSET 0 0.000000 0.000000
CHANNELS 3 Zrotation Xrotation Yrotation
									End Site
									{
OFFSET 0 -0.557050 0.557050
									}
								}
							}
						}
					}
				}
			}
		}
	}
}
MOTION
Frames: 4
Frame Time: 0.008333333333333333
8.765300 15.504500 23.338800 -179.170000 3.714800 -178.018000 0.000000 0.000000 0.000000 -23.926900 -21.541100 -0.357600 1.646000 8.086200 22.976300 1.389400 10.514600 -28.293700 2.661600 -10.125900 -29.385400 0.000000 0.000000 0.000000 25.089500 15.071800 -2.629500 -1.604500 -7.988600 22.679300 0.062000 -17.707700 -24.536100 -0.053400 -1.491000 4.100900 1.037900 1.072500 9.313300 -0.019100 1.571800 -2.836200 -0.860100 0.715000 -8.208400 -3.830300 -1.618400 -10.852200 4.595200 -2.032000 14.331900 1.929900 -0.728200 6.219400 -0.000000 -0.000000 0.000000 5.958200 13.533200 -11.378700 20.412100 -31.135600 5.742900 10.935400 5.862800 34.165100 0.000000 0.000000 0.000000 -7.125000 0.000000 0.000000 -11.903500 -4.016600 -12.983300 -0.000000 -0.000000 0.000000 -7.001100 17.517600 22.727200 -26.082600 -37.290200 -8.937600 -12.444000 25.229400 47.781000 0.000000 0.000000 0.000000 7.125000 0.000000 -0.000000 49.048600 73.559500 -35.222200
8.762127 15.507393 23.336374 -179.229726 3.789924 -178.000269 0.000000 0.000000 0.000000 -24.036554 -21.631716 -0.195126 1.615950 8.015648 22.761659 1.372789 10.674741 -28.303312 2.595808 -10.009994 -29.009218 0.000000 0.000000 0.000000 25.005137 15.008808 -2.810825 -1.636883 -8.064844 22.911112 0.068719 -17.704620 -24.470588 -0.035669 -1.216819 3.345643 1.054978 1.069327 8.989099 -0.086199 1.557242 -2.671020 -0.927759 0.708747 -7.840711 -3.848871 -1.586857 -10.926764 4.703920 -2.004470 14.229339 1.968909 -0.709816 6.199709 0.000000 0.000000 0.000000 6.407360 13.168683 -11.099200 20.171609 -30.848448 5.619061 10.697802 6.417880 33.979669 0.000000 0.000000 0.000000 -7.125000 0.000000 0.000000 -12.017726 -3.800466 -13.070836 0.000000 0.000000 0.000000 -7.185785 17.302212 22.987289 -26.209425 -37.414692 -9.014591 -7.212451 21.688569 52.448230 0.000000 0.000000 0.000000 7.125000 0.000000 0.000000 67.157494 73.715441 -50.859548
8.759647 15.511586 23.336113 -179.264326 3.901006 -177.977339 0.000000 0.000000 0.000000 -24.114669 -21.727184 -0.089318 1.599244 7.976029 22.641287 1.351845 10.874652 -28.315264 2.567619 -9.959851 -28.846875 0.000000 0.000000 0.000000 24.938016 14.914883 -2.991110 -1.661034 -8.121074 23.082360 0.058456 -17.611604 -24.430289 -0.022963 -0.974524 2.678851 0.926580 1.095007 9.364031 -0.054176 1.587739 -2.926758 -0.839804 0.726495 -8.337472 -3.961538 -1.560686 -10.801354 4.799991 -1.958658 14.409412 2.024466 -0.680254 6.234951 0.000000 0.000000 0.000000 6.728546 13.452180 -10.946201 19.951565 -30.583823 5.506747 10.567469 6.919415 34.251114 0.000000 0.000000 0.000000 -7.125000 0.000000 0.000000 -12.111765 -4.046493 -13.226648 0.000000 0.000000 0.000000 -7.613853 17.766030 23.397879 -26.314242 -37.517263 -9.078325 -7.731924 22.525533 52.543061 0.000000 0.000000 0.000000 7.125000 0.000000 0.000000 67.204927 73.980122 -51.130944
8.755542 15.513719 23.336740 -179.291391 3.980714 -177.950810 0.000000 0.000000 0.000000 -24.168122 -21.782643 -0.047291 1.589883 7.953747 22.573602 1.344002 10.960556 -28.329075 2.534892 -9.901102 -28.657031 0.000000 0.000000 0.000000 24.863667 14.761398 -3.172515 -1.674716 -8.152810 23.179130 0.054881 -17.528049 -24.342994 -0.013683 -0.749640 2.060139 0.904921 1.094682 9.201094 -0.054897 1.581485 -2.854927 -0.822221 0.726101 -8.165805 -3.990695 -1.538368 -10.804710 4.761942 -1.920073 14.347778 2.019725 -0.668623 6.214131 0.000000 0.000000 0.000000 7.041228 13.178994 -10.664929 19.677761 -30.251923 5.368211 9.804471 8.012093 33.872217 0.000000 0.000000 0.000000 -7.125000 0.000000 0.000000 -12.498844 -3.568456 -13.570606 0.000000 0.000000 0.000000 -8.074514 17.575610 23.903634 -26.075666 -37.283084 -8.933524 -8.021077 23.220180 52.624071 0.000000 0.000000 0.000000 7.125000 0.000000 0.000000 67.331007 74.113481 -51.394295
